<svg class="main-svg" xmlns="http://www.w3.org/2000/svg" xmlns:xlink="http://www.w3.org/1999/xlink" width="1400" height="1000" style="" viewBox="0 0 700 500"><rect x="0" y="0" width="700" height="500" style="fill: rgb(255, 255, 255); fill-opacity: 1;"/><defs id="defs-8e0ae1"><g class="clips"><clipPath id="clip8e0ae1xyplot" class="plotclip"><rect width="556" height="390"/></clipPath><clipPath class="axesclip" id="clip8e0ae1x"><rect x="50" y="0" width="556" height="500"/></clipPath><clipPath class="axesclip" id="clip8e0ae1y"><rect x="0" y="60" width="700" height="390"/></clipPath><clipPath class="axesclip" id="clip8e0ae1xy"><rect x="50" y="60" width="556" height="390"/></clipPath></g><g class="gradients"/></defs><g class="bglayer"/><g class="layer-below"><g class="imagelayer"/><g class="shapelayer"/></g><g class="cartesianlayer"><g class="subplot xy"><g class="layer-subplot"><g class="shapelayer"/><g class="imagelayer"/></g><g class="gridlayer"><g class="x"><path class="xgrid crisp" transform="translate(109.14,0)" d="M0,60v390" style="stroke: rgb(238, 238, 238); stroke-opacity: 1; stroke-width: 1px;"/><path class="xgrid crisp" transform="translate(227.45,0)" d="M0,60v390" style="stroke: rgb(238, 238, 238); stroke-opacity: 1; stroke-width: 1px;"/><path class="xgrid crisp" transform="translate(345.73,0)" d="M0,60v390" style="stroke: rgb(238, 238, 238); stroke-opacity: 1; stroke-width: 1px;"/><path class="xgrid crisp" transform="translate(464.04,0)" d="M0,60v390" style="stroke: rgb(238, 238, 238); stroke-opacity: 1; stroke-width: 1px;"/><path class="xgrid crisp" transform="translate(582.32,0)" d="M0,60v390" style="stroke: rgb(238, 238, 238); stroke-opacity: 1; stroke-width: 1px;"/></g><g class="y"><path class="ygrid crisp" transform="translate(0,440.59)" d="M50,0h556" style="stroke: rgb(238, 238, 238); stroke-opacity: 1; stroke-width: 1px;"/><path class="ygrid crisp" transform="translate(0,363.93)" d="M50,0h556" style="stroke: rgb(238, 238, 238); stroke-opacity: 1; stroke-width: 1px;"/><path class="ygrid crisp" transform="translate(0,210.6)" d="M50,0h556" style="stroke: rgb(238, 238, 238); stroke-opacity: 1; stroke-width: 1px;"/><path class="ygrid crisp" transform="translate(0,133.94)" d="M50,0h556" style="stroke: rgb(238, 238, 238); stroke-opacity: 1; stroke-width: 1px;"/></g></g><g class="zerolinelayer"><path class="yzl zl crisp" transform="translate(0,287.27)" d="M50,0h556" style="stroke: rgb(68, 68, 68); stroke-opacity: 1; stroke-width: 1px;"/></g><path class="xlines-below"/><path class="ylines-below"/><g class="overlines-below"/><g class="xaxislayer-below"/><g class="yaxislayer-below"/><g class="overaxes-below"/><g class="plot" transform="translate(50,60)" clip-path="url('#clip8e0ae1xyplot')"><g class="scatterlayer mlayer"><g class="trace scatter tracee1e24c" style="stroke-miterlimit: 2; opacity: 1;"><g class="fills"/><g class="errorbars"/><g class="lines"><path class="js-line" d="M0,227.27L556,227.27L556,227.27" style="vector-effect: non-scaling-stroke; fill: none; stroke: rgb(31, 119, 180); stroke-opacity: 1; stroke-width: 2px; opacity: 1;"/></g><g class="points"/><g class="text"/></g><g class="trace scatter trace7f1845" style="stroke-miterlimit: 2; opacity: 1;"><g class="fills"/><g class="errorbars"/><g class="lines"><path class="js-line" d="M0,103.9L556,103.9L556,103.9" style="vector-effect: non-scaling-stroke; fill: none; stroke: rgb(255, 127, 14); stroke-opacity: 1; stroke-width: 2px; opacity: 1;"/></g><g class="points"/><g class="text"/></g><g class="trace scatter trace67f509" style="stroke-miterlimit: 2; opacity: 1;"><g class="fills"/><g class="errorbars"/><g class="lines"><path class="js-line" d="M0,103.9L556,103.9L556,103.9" style="vector-effect: non-scaling-stroke; fill: none; stroke: rgb(44, 160, 44); stroke-opacity: 1; stroke-width: 2px; opacity: 1;"/></g><g class="points"/><g class="text"/></g><g class="trace scatter tracef84ab1" style="stroke-miterlimit: 2; opacity: 1;"><g class="fills"/><g class="errorbars"/><g class="lines"><path class="js-line" d="M0,104.07L105.82,103.32L105.82,103.32L105.82,103.31L212.46,102.56L212.46,102.56L212.46,102.55L319.1,101.8L319.1,101.8L319.11,101.79L425.75,101.04L425.75,101.04L425.75,101.03L532.39,100.28L532.39,100.28L532.39,100.27L556,100.11L556,100.11" style="vector-effect: non-scaling-stroke; fill: none; stroke: rgb(214, 39, 40); stroke-opacity: 1; stroke-width: 2px; opacity: 1;"/></g><g class="points"/><g class="text"/></g><g class="trace scatter trace57957c" style="stroke-miterlimit: 2; opacity: 1;"><g class="fills"/><g class="errorbars"/><g class="lines"><path class="js-line" d="M0,107.65L29.83,102.93L29.83,102.93L29.83,102.92L59.59,98.21L59.59,98.21L59.59,98.2L89.57,93.46L89.57,93.46L89.57,93.45L119.18,88.76L119.18,88.76L119.18,88.75L149.31,83.99L149.31,83.99L149.31,83.98L178.84,79.3L178.84,79.3L178.84,79.29L209.11,74.51L209.11,74.51L209.11,74.5L238.5,69.84L238.5,69.84L238.5,69.83L268.78,65.05L268.78,65.05L268.78,65.04L298.16,60.38L298.16,60.37L328.51,55.58L328.51,55.58L328.51,55.57L357.82,50.92L357.82,50.92L357.82,50.91L388.11,46.13L388.11,46.13L388.11,46.12L417.42,41.47L417.42,41.47L417.42,41.46L447.71,36.68L447.71,36.68L447.71,36.67L477.09,32.01L477.09,32.01L477.09,32L507.37,27.22L507.37,27.21L536.89,22.53L536.89,22.53L536.89,22.52L556,19.5L556,19.5" style="vector-effect: non-scaling-stroke; fill: none; stroke: rgb(148, 103, 189); stroke-opacity: 1; stroke-width: 2px; opacity: 1;"/></g><g class="points"/><g class="text"/></g><g class="trace scatter trace335f4f" style="stroke-miterlimit: 2; opacity: 1;"><g class="fills"/><g class="errorbars"/><g class="lines"><path class="js-line" d="M0,280.93L11.79,280.93L11.79,280.93L11.79,284.77L23.64,284.77L23.64,284.77L23.64,288.6L35.46,288.6L35.46,288.6L35.47,292.43L47.29,292.43L47.29,296.26L59.11,296.26L59.11,296.26L59.11,300.1L76.82,300.1L76.82,300.1L76.83,303.93L88.65,303.93L88.65,307.76L100.47,307.76L100.47,307.76L100.47,311.6L124.14,311.6L124.14,311.6L124.14,315.43L153.74,315.43L153.74,315.43L153.75,319.26L177.42,319.26L177.42,319.26L177.42,323.1L189.24,323.1L189.24,323.1L189.24,326.93L206.96,326.93L206.96,326.93L206.96,330.76L218.78,330.76L218.78,330.76L218.78,334.6L230.6,334.6L230.6,334.6L230.6,338.43L248.38,338.43L248.38,338.43L248.38,342.26L266.1,342.26L266.1,342.26L266.1,346.1L283.88,346.1L283.88,346.1L283.88,349.93L366.69,349.93L366.69,349.93L366.7,353.76L402.19,353.76L402.19,353.76L402.19,357.6L443.55,357.6L443.55,357.6L443.55,361.43L479.01,361.43L479.01,361.43L479.02,365.26L496.83,365.26L496.83,365.26L496.83,369.09L556,369.09L556,369.09" style="vector-effect: non-scaling-stroke; fill: none; stroke: rgb(140, 86, 75); stroke-opacity: 1; stroke-width: 2px; opacity: 1;"/></g><g class="points"/><g class="text"/></g><g class="trace scatter traceedd7d8" style="stroke-miterlimit: 2; opacity: 1;"><g class="fills"/><g class="errorbars"/><g class="lines"><path class="js-line" d="M0,278.22L11.79,281.97L11.79,281.97L11.79,285.64L11.82,281.98L12.54,282.22L12.55,282.22L23.64,286.05L23.64,286.05L23.64,289.72L23.7,286.06L24.41,286.3L24.42,286.3L35.46,289.93L35.46,289.93L35.47,293.6L35.5,289.94L36.22,290.21L36.23,290.21L44.92,293.12L44.92,293.12L44.93,293.12L47.29,293.96L47.29,297.64L47.32,293.97L48.04,294.23L48.05,294.23L59.11,297.62L59.11,297.62L59.11,301.29L59.14,297.62L59.86,297.84L59.87,297.84L72.43,301.24L72.43,301.24L72.44,301.24L76.82,302.51L76.83,306.18L76.86,302.51L77.58,302.61L77.59,302.61L88.65,305.42L88.65,309.1L88.68,305.43L89.4,305.55L89.41,305.55L97.56,307.9L97.56,307.9L97.56,307.91L100.47,308.72L100.47,312.39L100.5,308.72L101.22,308.84L101.23,308.84L109.43,310.68L109.43,310.68L109.43,310.69L124.14,313.32L124.14,313.32L124.14,317L124.17,313.33L124.89,313.37L124.9,313.37L153.74,317.86L153.74,317.86L153.75,321.54L153.78,317.87L154.5,317.99L154.51,317.99L172.49,320.85L172.49,320.85L172.5,320.85L177.42,321.83L177.42,321.83L177.42,325.5L177.45,321.84L178.17,321.98L178.18,321.98L189.24,324.55L189.24,324.55L189.24,328.23L189.27,324.56L189.99,324.75L190,324.75L204.22,328.35L204.22,328.35L204.22,328.36L206.96,329.06L206.96,329.06L206.96,332.73L206.99,329.07L207.71,329.18L207.72,329.18L213.58,330.71L213.58,330.71L213.58,330.72L218.78,332.29L218.78,332.29L218.78,335.97L218.81,332.3L219.53,332.43L219.54,332.43L230.6,335.42L230.6,335.42L230.6,339.1L230.63,335.43L231.35,335.55L231.36,335.55L237.21,337.08L237.21,337.08L237.21,337.09L248.38,340.13L248.38,340.13L248.38,343.8L248.42,340.13L249.13,340.29L249.14,340.29L266.1,344.07L266.1,344.07L266.1,347.75L266.13,344.08L266.85,344.16L266.86,344.16L278.58,346.51L278.58,346.51L278.59,346.51L283.88,347.18L283.88,347.18L283.88,350.85L283.91,347.18L284.63,347.26L284.64,347.26L306.45,349.47L306.45,349.47L306.46,349.47L348.98,351.72L348.98,351.72L348.99,351.72L365.66,352.4L365.66,352.41L366.69,352.46L366.69,352.46L366.7,356.14L366.73,352.46L367.45,352.5L367.46,352.5L375.84,353.25L375.84,353.25L375.84,353.26L393.52,355.18L393.52,355.18L393.52,355.19L402.19,356.03L402.19,356.03L402.19,359.71L402.22,356.03L402.94,356.11L402.95,356.11L437.28,359.14L437.28,359.14L437.28,359.15L443.55,359.84L443.55,359.84L443.55,363.52L443.58,359.84L444.3,359.85L444.31,359.85L451.31,360.6L451.31,360.6L451.31,360.61L479.01,364.02L479.01,364.02L479.02,367.7L479.05,364.02L479.77,364.09L479.78,364.09L486.73,365.29L486.73,365.29L486.73,365.3L496.83,366.82L496.83,366.82L496.83,370.5L496.86,366.83L497.58,366.94L497.59,366.94L512.38,368.67L512.38,368.67L512.39,368.68L526.11,369.76L526.11,369.76L526.12,369.76L556,369.52L556,369.52" style="vector-effect: non-scaling-stroke; fill: none; stroke: rgb(227, 119, 194); stroke-opacity: 1; stroke-width: 2px; opacity: 1;"/></g><g class="points"/><g class="text"/></g></g></g><g class="overplot"/><path class="xlines-above crisp" d="M0,0" style="fill: none;"/><path class="ylines-above crisp" d="M0,0" style="fill: none;"/><g class="overlines-above"/><g class="xaxislayer-above"><g class="xtick"><text text-anchor="middle" x="0" y="463" transform="translate(109.14,0)" style="font-family: 'Open Sans', verdana, arial, sans-serif; font-size: 12px; fill: rgb(68, 68, 68); fill-opacity: 1; white-space: pre;">1980</text></g><g class="xtick"><text text-anchor="middle" x="0" y="463" transform="translate(227.45,0)" style="font-family: 'Open Sans', verdana, arial, sans-serif; font-size: 12px; fill: rgb(68, 68, 68); fill-opacity: 1; white-space: pre;">1990</text></g><g class="xtick"><text text-anchor="middle" x="0" y="463" transform="translate(345.73,0)" style="font-family: 'Open Sans', verdana, arial, sans-serif; font-size: 12px; fill: rgb(68, 68, 68); fill-opacity: 1; white-space: pre;">2000</text></g><g class="xtick"><text text-anchor="middle" x="0" y="463" transform="translate(464.04,0)" style="font-family: 'Open Sans', verdana, arial, sans-serif; font-size: 12px; fill: rgb(68, 68, 68); fill-opacity: 1; white-space: pre;">2010</text></g><g class="xtick"><text text-anchor="middle" x="0" y="463" transform="translate(582.32,0)" style="font-family: 'Open Sans', verdana, arial, sans-serif; font-size: 12px; fill: rgb(68, 68, 68); fill-opacity: 1; white-space: pre;">2020</text></g></g><g class="yaxislayer-above"><g class="ytick"><text text-anchor="end" x="49" y="4.199999999999999" transform="translate(0,440.59)" style="font-family: 'Open Sans', verdana, arial, sans-serif; font-size: 12px; fill: rgb(68, 68, 68); fill-opacity: 1; white-space: pre;">−40</text></g><g class="ytick"><text text-anchor="end" x="49" y="4.199999999999999" transform="translate(0,363.93)" style="font-family: 'Open Sans', verdana, arial, sans-serif; font-size: 12px; fill: rgb(68, 68, 68); fill-opacity: 1; white-space: pre;">−20</text></g><g class="ytick"><text text-anchor="end" x="49" y="4.199999999999999" transform="translate(0,287.27)" style="font-family: 'Open Sans', verdana, arial, sans-serif; font-size: 12px; fill: rgb(68, 68, 68); fill-opacity: 1; white-space: pre;">0</text></g><g class="ytick"><text text-anchor="end" x="49" y="4.199999999999999" transform="translate(0,210.6)" style="font-family: 'Open Sans', verdana, arial, sans-serif; font-size: 12px; fill: rgb(68, 68, 68); fill-opacity: 1; white-space: pre;">20</text></g><g class="ytick"><text text-anchor="end" x="49" y="4.199999999999999" transform="translate(0,133.94)" style="font-family: 'Open Sans', verdana, arial, sans-serif; font-size: 12px; fill: rgb(68, 68, 68); fill-opacity: 1; white-space: pre;">40</text></g></g><g class="overaxes-above"/></g></g><g class="polarlayer"/><g class="ternarylayer"/><g class="geolayer"/><g class="funnelarealayer"/><g class="pielayer"/><g class="treemaplayer"/><g class="sunburstlayer"/><g class="glimages"/><defs id="topdefs-8e0ae1"><g class="clips"/><clipPath id="legend8e0ae1"><rect width="71" height="143" x="0" y="0"/></clipPath></defs><g class="layer-above"><g class="imagelayer"/><g class="shapelayer"/></g><g class="infolayer"><g class="legend" pointer-events="all" transform="translate(617.12,60)"><rect class="bg" shape-rendering="crispEdges" style="stroke: rgb(68, 68, 68); stroke-opacity: 1; fill: rgb(255, 255, 255); fill-opacity: 1; stroke-width: 0px;" width="71" height="143" x="0" y="0"/><g class="scrollbox" transform="" clip-path="url('#legend8e0ae1')"><g class="groups"><g class="traces" transform="translate(0,14.5)" style="opacity: 1;"><text class="legendtext" text-anchor="start" x="40" y="4.680000000000001" style="font-family: 'Open Sans', verdana, arial, sans-serif; font-size: 12px; fill: rgb(68, 68, 68); fill-opacity: 1; white-space: pre;">TAI</text><g class="layers" style="opacity: 1;"><g class="legendfill"/><g class="legendlines"><path class="js-line" d="M5,0h30" style="fill: none; stroke: rgb(31, 119, 180); stroke-opacity: 1; stroke-width: 2px;"/></g><g class="legendsymbols"><g class="legendpoints"/></g></g><rect class="legendtoggle" x="0" y="-9.5" width="65.34375" height="19" style="fill: rgb(0, 0, 0); fill-opacity: 0;"/></g><g class="traces" transform="translate(0,33.5)" style="opacity: 1;"><text class="legendtext" text-anchor="start" x="40" y="4.680000000000001" style="font-family: 'Open Sans', verdana, arial, sans-serif; font-size: 12px; fill: rgb(68, 68, 68); fill-opacity: 1; white-space: pre;">TDB</text><g class="layers" style="opacity: 1;"><g class="legendfill"/><g class="legendlines"><path class="js-line" d="M5,0h30" style="fill: none; stroke: rgb(255, 127, 14); stroke-opacity: 1; stroke-width: 2px;"/></g><g class="legendsymbols"><g class="legendpoints"/></g></g><rect class="legendtoggle" x="0" y="-9.5" width="65.34375" height="19" style="fill: rgb(0, 0, 0); fill-opacity: 0;"/></g><g class="traces" transform="translate(0,52.5)" style="opacity: 1;"><text class="legendtext" text-anchor="start" x="40" y="4.680000000000001" style="font-family: 'Open Sans', verdana, arial, sans-serif; font-size: 12px; fill: rgb(68, 68, 68); fill-opacity: 1; white-space: pre;">TT</text><g class="layers" style="opacity: 1;"><g class="legendfill"/><g class="legendlines"><path class="js-line" d="M5,0h30" style="fill: none; stroke: rgb(44, 160, 44); stroke-opacity: 1; stroke-width: 2px;"/></g><g class="legendsymbols"><g class="legendpoints"/></g></g><rect class="legendtoggle" x="0" y="-9.5" width="65.34375" height="19" style="fill: rgb(0, 0, 0); fill-opacity: 0;"/></g><g class="traces" transform="translate(0,71.5)" style="opacity: 1;"><text class="legendtext" text-anchor="start" x="40" y="4.680000000000001" style="font-family: 'Open Sans', verdana, arial, sans-serif; font-size: 12px; fill: rgb(68, 68, 68); fill-opacity: 1; white-space: pre;">TCG</text><g class="layers" style="opacity: 1;"><g class="legendfill"/><g class="legendlines"><path class="js-line" d="M5,0h30" style="fill: none; stroke: rgb(214, 39, 40); stroke-opacity: 1; stroke-width: 2px;"/></g><g class="legendsymbols"><g class="legendpoints"/></g></g><rect class="legendtoggle" x="0" y="-9.5" width="65.34375" height="19" style="fill: rgb(0, 0, 0); fill-opacity: 0;"/></g><g class="traces" transform="translate(0,90.5)" style="opacity: 1;"><text class="legendtext" text-anchor="start" x="40" y="4.680000000000001" style="font-family: 'Open Sans', verdana, arial, sans-serif; font-size: 12px; fill: rgb(68, 68, 68); fill-opacity: 1; white-space: pre;">TCB</text><g class="layers" style="opacity: 1;"><g class="legendfill"/><g class="legendlines"><path class="js-line" d="M5,0h30" style="fill: none; stroke: rgb(148, 103, 189); stroke-opacity: 1; stroke-width: 2px;"/></g><g class="legendsymbols"><g class="legendpoints"/></g></g><rect class="legendtoggle" x="0" y="-9.5" width="65.34375" height="19" style="fill: rgb(0, 0, 0); fill-opacity: 0;"/></g><g class="traces" transform="translate(0,109.5)" style="opacity: 1;"><text class="legendtext" text-anchor="start" x="40" y="4.680000000000001" style="font-family: 'Open Sans', verdana, arial, sans-serif; font-size: 12px; fill: rgb(68, 68, 68); fill-opacity: 1; white-space: pre;">UTC</text><g class="layers" style="opacity: 1;"><g class="legendfill"/><g class="legendlines"><path class="js-line" d="M5,0h30" style="fill: none; stroke: rgb(140, 86, 75); stroke-opacity: 1; stroke-width: 2px;"/></g><g class="legendsymbols"><g class="legendpoints"/></g></g><rect class="legendtoggle" x="0" y="-9.5" width="65.34375" height="19" style="fill: rgb(0, 0, 0); fill-opacity: 0;"/></g><g class="traces" transform="translate(0,128.5)" style="opacity: 1;"><text class="legendtext" text-anchor="start" x="40" y="4.680000000000001" style="font-family: 'Open Sans', verdana, arial, sans-serif; font-size: 12px; fill: rgb(68, 68, 68); fill-opacity: 1; white-space: pre;">UT1</text><g class="layers" style="opacity: 1;"><g class="legendfill"/><g class="legendlines"><path class="js-line" d="M5,0h30" style="fill: none; stroke: rgb(227, 119, 194); stroke-opacity: 1; stroke-width: 2px;"/></g><g class="legendsymbols"><g class="legendpoints"/></g></g><rect class="legendtoggle" x="0" y="-9.5" width="65.34375" height="19" style="fill: rgb(0, 0, 0); fill-opacity: 0;"/></g></g></g><rect class="scrollbar" rx="20" ry="3" width="0" height="0" style="fill: rgb(128, 139, 164); fill-opacity: 1;" x="0" y="0"/></g><g class="g-gtitle"/><g class="g-xtitle"/><g class="g-ytitle" transform="translate(1,0)"><text class="ytitle" transform="rotate(-90,12,255)" x="12" y="255" text-anchor="middle" style="font-family: 'Open Sans', verdana, arial, sans-serif; font-size: 14px; fill: rgb(68, 68, 68); opacity: 1; font-weight: normal; white-space: pre;">ΔTAI (s)</text></g></g></svg>